<?xml version="1.0" encoding="iso-8859-1"?>
<!-- Generator: Adobe Illustrator 16.0.0, SVG Export Plug-In . SVG Version: 6.00 Build 0)  -->
<!DOCTYPE svg PUBLIC "-//W3C//DTD SVG 1.1//EN" "http://www.w3.org/Graphics/SVG/1.1/DTD/svg11.dtd">
<svg version="1.1" id="Capa_1" xmlns="http://www.w3.org/2000/svg" xmlns:xlink="http://www.w3.org/1999/xlink" x="0px" y="0px"
	 width="612px" height="612px" viewBox="0 0 612 612" style="enable-background:new 0 0 612 612;" xml:space="preserve">
<g>
	<g>
		<g id="Troubleshoot">
			<g>
				<path d="M306,0C136.992,0,0,136.992,0,306c0,168.988,136.992,306,306,306s306-137.012,306-306C612,136.992,475.008,0,306,0z
					 M306,76.5c49.495,0,95.242,15.893,132.766,42.649l-55.155,55.156C360.831,160.86,334.362,153,306,153
					c-28.362,0-54.832,7.86-77.609,21.305l-55.156-55.156C210.757,92.412,256.504,76.5,306,76.5z M382.5,306
					c0,4.055-0.497,7.956-1.186,11.8c-5.106,32.742-30.772,58.408-63.516,63.516c-3.844,0.688-7.745,1.186-11.8,1.186
					c-4.055,0-7.956-0.497-11.8-1.186c-32.742-5.106-58.408-30.772-63.514-63.516c-0.688-3.844-1.186-7.745-1.186-11.8
					c0-4.055,0.497-7.956,1.186-11.8c5.106-32.742,30.772-58.408,63.514-63.514c3.844-0.688,7.746-1.186,11.8-1.186
					c4.054,0,7.956,0.497,11.8,1.186c32.742,5.106,58.408,30.772,63.516,63.514C382.003,298.044,382.5,301.945,382.5,306z M76.5,306
					c0-49.496,15.893-95.243,42.649-132.766l55.156,55.156C160.86,251.168,153,277.638,153,306c0,28.362,7.86,54.831,21.305,77.609
					l-55.156,55.155C92.412,401.242,76.5,355.477,76.5,306z M306,535.5c-49.496,0-95.243-15.893-132.766-42.648l55.156-55.156
					C251.168,451.14,277.638,459,306,459c28.362,0,54.831-7.86,77.609-21.306l55.155,55.156
					C401.242,519.607,355.495,535.5,306,535.5z M492.852,438.766l-55.156-55.155C451.14,360.831,459,334.362,459,306
					c0-28.362-7.86-54.832-21.306-77.609l55.156-55.156C519.607,210.757,535.5,256.504,535.5,306
					C535.5,355.477,519.607,401.242,492.852,438.766z"/>
			</g>
		</g>
	</g>
</g>
<g>
</g>
<g>
</g>
<g>
</g>
<g>
</g>
<g>
</g>
<g>
</g>
<g>
</g>
<g>
</g>
<g>
</g>
<g>
</g>
<g>
</g>
<g>
</g>
<g>
</g>
<g>
</g>
<g>
</g>
</svg>
